<svg xmlns="http://www.w3.org/2000/svg" width="48" height="48" viewBox="0 0 48 48" fill="none">
  <rect width="48" height="48" rx="13" fill="#0f1b3d"/>
  <g transform="translate(6 10) scale(0.12)" fill="#e6c44d">
    <path d="M16 78 L150 52 Q172 49 188 60 L150 74 L40 92 Z"/>
    <path d="M30 104 L150 84 Q176 81 196 92 L150 104 L52 116 Z"/>
    <path d="M150 70 C176 58 206 56 232 70 C250 80 262 96 270 112 C274 120 270 126 262 124 L236 116 C246 128 252 140 250 150 C236 138 220 132 206 132 L150 104 C150 104 150 70 150 70 Z"/>
    <path d="M150 104 L206 132 C214 150 210 172 192 190 C170 212 140 220 96 226 L150 150 Z"/>
    <path d="M44 130 L150 116 L150 150 L96 226 L70 168 Z"/>
  </g>
  <path d="M222 84 Q240 82 251 90 Q239 92 226 91 Z" fill="#0f1b3d" transform="translate(6 10) scale(0.12)"/>
</svg>
